<svg width="32" height="32" viewBox="0 0 32 32" fill="none" xmlns="http://www.w3.org/2000/svg">
<g clip-path="url(#clip0_1_317)">
<path d="M31.3545 16C31.3545 7.16344 24.4082 0 15.8394 0C7.27059 0 0.324219 7.16344 0.324219 16C0.324219 24.8366 7.27059 32 15.8394 32C24.4082 32 31.3545 24.8366 31.3545 16Z" fill="#230078"/>
<path fill-rule="evenodd" clip-rule="evenodd" d="M23.9611 18.875L19.931 21.25V16.5L15.9009 14.099L19.931 11.75L23.9611 14.125V18.875ZM15.9 14.125L11.8709 16.5V11.75L7.83984 9.375L11.8709 7L15.9009 9.375L15.9 14.125ZM15.9 23.625L11.8709 26V21.25L7.84081 18.875L11.8709 16.5L15.9009 18.875L15.9 23.625Z" fill="white"/>
</g>
<defs>
<clipPath id="clip0_1_317">
<rect width="32" height="32" fill="white"/>
</clipPath>
</defs>
</svg>
