<svg width="82" height="96" viewBox="0 0 82 96" fill="none" xmlns="http://www.w3.org/2000/svg">
<path d="M21.8611 27.841C31.0531 28.747 35.2671 20.032 36.8781 12.274C37.3721 9.89603 37.5411 7.50403 37.5901 5.08203C37.6101 4.19703 37.6301 3.32003 37.5671 2.43603C37.5471 2.14403 37.5071 1.26603 37.5171 1.55903C37.6901 6.45703 37.4911 24.7 42.9241 27.467C46.1961 29.133 49.7701 27.687 52.9621 28.751C53.2371 28.844 52.5081 29.113 52.2691 29.281C50.6951 30.397 49.1471 31.544 47.7541 32.886C44.5621 35.962 42.4241 39.682 40.5141 43.636C39.0491 46.669 38.2341 49.823 37.1861 53C36.7951 54.188 36.4331 55.433 36.2351 56.67C36.1781 57.028 36.1421 58.11 36.0951 57.75C35.3201 51.561 37.8791 35.827 32.5451 31.28C30.8511 29.833 23.7341 28.875 21.8611 27.841ZM53.9371 57.376C60.4941 57.39 63.6701 54.088 66.4171 48.219C67.2371 46.467 67.8601 44.518 68.3271 42.641C68.4901 42.001 68.5721 41.343 68.6951 40.696C68.7751 40.269 68.6351 39.048 68.8811 39.406C70.9531 42.415 67.5781 51.08 70.6481 55.2C72.1291 57.19 74.5921 57.98 76.9691 58.234C77.6951 58.312 78.4251 58.352 79.1571 58.386C79.5221 58.403 80.4971 58.149 80.2551 58.425C77.7021 61.34 73.7641 62.74 71.2811 65.893C68.5391 69.373 66.9781 73.129 65.9471 77.41C65.6061 78.834 65.4601 80.308 65.2571 81.756C65.1451 82.558 65.0781 84.963 64.9461 84.164C63.7691 77.104 67.6811 67.138 62.6091 61.047C61.3821 59.577 55.1671 58.539 53.9371 57.376ZM1.70312 72.15C8.63812 72.221 10.8431 63.752 11.5661 58.322C11.7981 56.58 11.8501 54.812 11.9961 53.062C12.1091 51.712 12.2321 49.942 12.2381 49.982C13.4851 55.047 11.9201 61.645 15.6691 65.89C17.3141 67.755 19.9991 68.527 22.3861 68.79C23.5691 68.92 26.3111 67.872 25.9491 69.006C24.1361 74.712 19.2231 78.913 17.6891 85.096C17.1681 87.181 16.7271 89.286 16.5151 91.426C16.3551 93.031 16.3591 94.58 16.3521 94.496C15.6621 84.128 11.6881 75.989 1.70312 72.15Z" stroke="#190041" stroke-width="2" stroke-miterlimit="1.5" stroke-linecap="round" stroke-linejoin="round"/>
</svg>
