<svg width="160" height="72" viewBox="0 0 160 72" fill="none" xmlns="http://www.w3.org/2000/svg">
<g clip-path="url(#clip0_1_115)">
<path d="M5.81808 35.3509C5.69967 35.1958 5.50873 35.1139 5.31474 35.1351C5.12075 35.1564 4.95201 35.2775 4.86993 35.4546L0.0610438 45.0694C-0.0285034 45.2479 -0.0190146 45.46 0.0861075 45.6298C0.19123 45.7996 0.376923 45.9026 0.576599 45.902H7.2729C7.49238 45.9078 7.6946 45.7835 7.78845 45.585C9.22845 42.5924 8.35438 38.059 5.81808 35.3509Z" fill="#190041"/>
<path d="M9.34552 26.5924C6.89857 30.3438 6.61139 35.1075 8.58997 39.1257L11.8344 45.585C11.9322 45.7799 12.1319 45.9027 12.35 45.902H19.0463C19.2444 45.8996 19.4272 45.7953 19.5302 45.6261C19.6332 45.4568 19.6418 45.2465 19.5529 45.0694L10.3233 26.5924C10.2331 26.4043 10.043 26.2847 9.83441 26.2847C9.62583 26.2847 9.43573 26.4043 9.34552 26.5924Z" fill="#190041"/>
<path d="M87.8936 34.3137C87.8936 36.6841 88.9988 38.5863 93.3188 39.4189C95.8965 39.9582 96.4358 40.3759 96.4358 41.2352C96.4358 42.0944 95.8965 42.61 94.0654 42.61C91.8706 42.5704 89.7198 41.9881 87.8047 40.9152V44.7967C89.1054 45.4337 90.8239 46.1478 94.0269 46.1478C98.5454 46.1478 100.338 44.1359 100.338 41.1404M100.338 41.1404C100.338 38.3167 98.8417 36.9922 94.6165 36.0826C92.2847 35.567 91.7188 35.0515 91.7188 34.3048C91.7188 33.3715 92.5543 32.9804 94.0891 32.9804C95.9558 32.9804 97.7958 33.5463 99.541 34.3315V30.6307C97.8679 29.8691 96.0456 29.4914 94.2076 29.5256C90.0328 29.5256 87.8728 31.3419 87.8728 34.3137" fill="#190041"/>
<path d="M145.93 29.7715V45.9019H149.367V33.6026L150.816 36.8678L155.678 45.9019H159.998V29.7715H156.561V40.1833L155.26 37.1611L151.355 29.7715H145.93Z" fill="#190041"/>
<path d="M120.312 29.7715H124.07V45.9019H120.312V29.7715Z" fill="#190041"/>
<path d="M115.98 41.1404C115.98 38.3167 114.484 36.9922 110.258 36.0826C107.927 35.567 107.361 35.0515 107.361 34.3048C107.361 33.3715 108.196 32.9804 109.731 32.9804C111.598 32.9804 113.438 33.5463 115.183 34.3315V30.6307C113.51 29.8691 111.687 29.4914 109.849 29.5256C105.675 29.5256 103.515 31.3419 103.515 34.3137C103.515 36.6841 104.62 38.5863 108.94 39.4189C111.518 39.9582 112.057 40.3759 112.057 41.2352C112.057 42.0944 111.518 42.61 109.687 42.61C107.492 42.5704 105.341 41.9881 103.426 40.9152V44.7967C104.727 45.4337 106.445 46.1478 109.648 46.1478C114.167 46.1478 115.959 44.1359 115.959 41.1404" fill="#190041"/>
<path d="M58.7148 29.7715V45.9019H66.4363L67.6511 42.4174H62.4956V29.7715H58.7148Z" fill="#190041"/>
<path d="M43.457 29.7715V33.2589H47.6318V45.9019H51.4126V33.2589H55.8807V29.7715H43.457Z" fill="#190041"/>
<path d="M37.9743 29.7715H33.0203L27.3906 45.9019H31.7017L32.4899 43.1848C34.457 43.7641 36.5494 43.7641 38.5166 43.1848L39.3136 45.9019H43.6099L37.9743 29.7715ZM35.4973 40.2782C34.7953 40.2791 34.0968 40.1793 33.4232 39.9819L35.4973 32.9389L37.5714 39.9819C36.8977 40.1793 36.1993 40.2791 35.4973 40.2782Z" fill="#190041"/>
<path d="M79.744 29.7716H74.7899L69.1603 45.902H73.4566L74.2595 43.1849C76.223 43.7619 78.3109 43.7619 80.2744 43.1849L81.0714 45.902H85.3677L79.744 29.7716ZM77.2669 40.2783C76.565 40.2792 75.8665 40.1795 75.1929 39.982L77.2669 32.939L79.341 39.982C78.6674 40.1795 77.9689 40.2792 77.2669 40.2783Z" fill="#190041"/>
<path d="M137.603 29.7715H132.649L127.02 45.9019H131.316L132.119 43.1848C134.082 43.7618 136.17 43.7618 138.134 43.1848L138.931 45.9019H143.227L137.603 29.7715ZM135.126 40.2782C134.424 40.2791 133.726 40.1793 133.052 39.9819L135.126 32.9389L137.2 39.9819C136.527 40.1793 135.828 40.2791 135.126 40.2782Z" fill="#190041"/>
</g>
<defs>
<clipPath id="clip0_1_115">
<rect width="160" height="72" fill="white"/>
</clipPath>
</defs>
</svg>
