<svg width="160" height="72" viewBox="0 0 160 72" fill="none" xmlns="http://www.w3.org/2000/svg">
<path d="M142.551 45.4208C142.551 43.4212 144.204 41.7988 146.238 41.7988C148.274 41.7988 149.925 43.4212 149.925 45.4208C149.925 47.4205 148.274 49.0418 146.238 49.0418C144.204 49.0418 142.551 47.4205 142.551 45.4208Z" fill="#190041"/>
<path d="M24.9531 35.8289C24.9531 33.5348 24.5018 31.8328 23.5991 30.7239C22.6954 29.6162 21.3264 29.0628 19.4859 29.0628H17.5281V43.0917H19.0261C21.0704 43.0917 22.5684 42.4965 23.5223 41.3017C24.4751 40.1091 24.9531 38.2844 24.9531 35.8289ZM31.9353 35.5899C31.9353 39.7695 30.7915 42.9901 28.504 45.2507C26.2164 47.5123 23.0005 48.6432 18.8553 48.6432H10.8008V23.5984H19.4176C23.4145 23.5984 26.5002 24.6265 28.6747 26.6817C30.8481 28.7379 31.9353 31.7059 31.9353 35.5899Z" fill="#190041"/>
<path d="M54.2461 48.6427H60.6553V23.4932H54.2461V48.6427Z" fill="#190041"/>
<path d="M69.6609 39.2617C69.6609 40.8652 69.8743 42.0882 70.3 42.9288C70.7268 43.7703 71.4416 44.1906 72.4467 44.1906C73.4411 44.1906 74.1443 43.7703 74.554 42.9288C74.9637 42.0882 75.1675 40.8652 75.1675 39.2617C75.1675 37.6666 74.9605 36.4635 74.5455 35.6512C74.1293 34.8369 73.4198 34.4292 72.4136 34.4292C71.4299 34.4292 70.7268 34.8348 70.3 35.6418C69.8743 36.4498 69.6609 37.6561 69.6609 39.2617ZM81.6909 39.2617C81.6909 42.3167 80.8758 44.6999 79.2412 46.4082C77.6077 48.1175 75.3211 48.9727 72.3816 48.9727C69.5627 48.9727 67.3188 48.0987 65.6533 46.3506C63.9857 44.6025 63.1523 42.2402 63.1523 39.2617C63.1523 36.2161 63.9686 33.8497 65.6032 32.1623C67.2377 30.475 69.5296 29.6313 72.4808 29.6313C74.3043 29.6313 75.9176 30.0223 77.3153 30.803C78.7141 31.5838 79.7939 32.7021 80.5525 34.1588C81.3122 35.6135 81.6909 37.3155 81.6909 39.2617Z" fill="#190041"/>
<path d="M84.2344 48.643H90.6447V39.0179V29.9619H84.2344V48.643Z" fill="#190041"/>
<path d="M84.2344 27.7021H90.6447V23.4922H84.2344V27.7021Z" fill="#190041"/>
<path d="M103.632 43.8783C104.497 43.8783 105.528 43.6624 106.73 43.2337V47.9341C105.866 48.3072 105.044 48.5745 104.263 48.7327C103.482 48.8931 102.566 48.9727 101.517 48.9727C99.3648 48.9727 97.8135 48.4414 96.8607 47.3808C95.9122 46.3202 95.4363 44.6915 95.4363 42.4938V34.7929H93.1914V29.9636H95.4363V25.1929L101.896 24.0894V29.9636H105.985V34.7929H101.896V42.0641C101.896 43.2735 102.475 43.8783 103.632 43.8783Z" fill="#190041"/>
<path d="M118.469 43.8783C119.334 43.8783 120.365 43.6624 121.567 43.2337V47.9341C120.704 48.3072 119.881 48.5745 119.1 48.7327C118.318 48.8931 117.405 48.9727 116.354 48.9727C114.202 48.9727 112.651 48.4414 111.7 47.3808C110.749 46.3202 110.273 44.6915 110.273 42.4938V34.7929H108.027V29.9636H110.273V25.1206L116.732 24.0894V29.9636H120.824V34.7929H116.732V42.0641C116.732 43.2735 117.311 43.8783 118.469 43.8783Z" fill="#190041"/>
<path d="M129.654 36.9859C129.741 35.963 130.039 35.2136 130.547 34.7347C131.057 34.2568 131.686 34.0178 132.439 34.0178C133.261 34.0178 133.914 34.2861 134.398 34.8269C134.886 35.3646 135.14 36.0846 135.16 36.9859H129.654ZM138.693 31.8337C137.169 30.3665 135.008 29.6318 132.211 29.6318C129.272 29.6318 127.01 30.4755 125.424 32.1628C123.84 33.8502 123.047 36.2711 123.047 39.4257C123.047 42.4807 123.904 44.8367 125.613 46.4904C127.323 48.1442 129.725 48.9722 132.818 48.9722C134.303 48.9722 135.582 48.8726 136.653 48.6745C137.718 48.4786 138.748 48.1243 139.748 47.6129L138.763 43.403C138.037 43.6943 137.345 43.9186 136.692 44.0664C135.749 44.2812 134.714 44.3891 133.587 44.3891C132.352 44.3891 131.377 44.0926 130.662 43.4994C129.947 42.9051 129.566 42.0856 129.522 41.0417H140.979V38.1733C140.979 35.4138 140.218 33.2999 138.693 31.8337Z" fill="#190041"/>
<path d="M40.4426 36.9859C40.5301 35.963 40.8278 35.2136 41.3356 34.7347C41.8446 34.2568 42.4752 34.0178 43.2295 34.0178C44.049 34.0178 44.702 34.2861 45.1875 34.8269C45.675 35.3646 45.9279 36.0846 45.9503 36.9859H40.4426ZM49.483 31.8337C47.9584 30.3665 45.7977 29.6318 43.0002 29.6318C40.0595 29.6318 37.7987 30.4755 36.2142 32.1628C34.6298 33.8502 33.8359 36.2711 33.8359 39.4257C33.8359 42.4807 34.6916 44.8367 36.4031 46.4904C38.1124 48.1442 40.5141 48.9722 43.6073 48.9722C45.0925 48.9722 46.3707 48.8726 47.4419 48.6745C48.5068 48.4786 49.5375 48.1243 50.5383 47.6129L49.5524 43.403C48.8258 43.6943 48.1344 43.9186 47.4825 44.0664C46.5372 44.2812 45.5033 44.3891 44.3765 44.3891C43.1421 44.3891 42.1658 44.0926 41.4509 43.4994C40.735 42.9051 40.3551 42.0856 40.3114 41.0417H51.7686V38.1733C51.7686 35.4138 51.0067 33.2999 49.483 31.8337Z" fill="#190041"/>
</svg>
