<svg width="160" height="72" viewBox="0 0 160 72" fill="none" xmlns="http://www.w3.org/2000/svg">
<mask id="mask0_1_105" style="mask-type:luminance" maskUnits="userSpaceOnUse" x="0" y="0" width="160" height="72">
<path d="M160 0H0V72H160V0Z" fill="white"/>
</mask>
<g mask="url(#mask0_1_105)">
<mask id="mask1_1_105" style="mask-type:luminance" maskUnits="userSpaceOnUse" x="0" y="9" width="160" height="54">
<path d="M160 9.94727H0V62.6897H160V9.94727Z" fill="white"/>
</mask>
<g mask="url(#mask1_1_105)">
<path d="M144.998 44.6253C140.53 44.6253 137.38 41.1384 137.38 36.5528C137.38 31.9671 140.53 28.4802 144.998 28.4802C149.467 28.4802 152.529 31.9671 152.529 36.5528C152.529 41.1384 149.423 44.6253 144.998 44.6253ZM144.28 49.4307C147.884 49.4307 150.946 48.0242 152.88 45.0795C153.246 47.9363 155.312 48.9765 157.92 48.9765H160V44.4495H159.107C157.627 44.4495 157.261 43.7316 157.261 42.0468V24.1436H152.485V27.821C150.858 25.2425 147.796 23.6895 144.28 23.6895C138.01 23.6895 132.252 28.9491 132.252 36.5528C132.252 44.1565 138.024 49.4161 144.28 49.4161V49.4307ZM119.682 43.2188C119.682 47.2917 122.202 48.9765 125.22 48.9765H131.036V44.4495H126.802C125.044 44.4495 124.678 43.7756 124.678 42.0468V28.6707H131.036V24.1436H124.678V15.8074H119.682V43.2188ZM96.9292 48.9765H101.925V38.3255H103.595L112.107 48.9765H118.422L107.566 35.4686L115.902 24.1436H110.276L103.463 33.7105H101.925V15.8074H96.9292V48.9765ZM80.7109 23.6895C73.7226 23.6895 67.9648 28.9491 67.9648 36.5528C67.9648 44.1565 73.7372 49.4161 80.7109 49.4161C87.6847 49.4161 93.457 44.1565 93.457 36.5528C93.457 28.9491 87.6847 23.6895 80.7109 23.6895ZM80.7109 44.6253C76.2425 44.6253 73.0926 41.1384 73.0926 36.5528C73.0926 31.9671 76.2425 28.4802 80.7109 28.4802C85.1794 28.4802 88.3293 31.9671 88.3293 36.5528C88.3293 41.1384 85.1794 44.6253 80.7109 44.6253Z" fill="#190041"/>
<path fill-rule="evenodd" clip-rule="evenodd" d="M29.0095 10.328L27.9253 23.6894C27.4125 23.6308 26.8998 23.6015 26.3723 23.6015C25.7131 23.6015 25.0684 23.6454 24.4385 23.748L23.8231 17.2724C23.8085 17.0673 23.9696 16.8915 24.1747 16.8915H25.2735L24.7461 10.3426C24.7315 10.1375 24.8926 9.96167 25.0831 9.96167H28.6725C28.8776 9.96167 29.0388 10.1375 29.0095 10.3426V10.328ZM19.9553 10.9873C19.8967 10.7968 19.6916 10.6796 19.5012 10.7529L16.1315 11.9835C15.9411 12.0568 15.8532 12.2765 15.9411 12.4523L18.6807 18.4298L17.6405 18.8107C17.4501 18.884 17.3622 19.1037 17.4501 19.2795L20.2484 25.1545C21.2593 24.5977 22.3581 24.1729 23.5155 23.9092L19.97 10.9873H19.9553ZM11.6924 14.7085L19.4426 25.6379C18.461 26.2826 17.5673 27.0444 16.8055 27.9234L12.1612 23.3524C12.0147 23.2059 12.0293 22.9715 12.1758 22.8397L13.0256 22.1364L8.41062 17.4629C8.26411 17.3164 8.27876 17.0819 8.43992 16.9501L11.1796 14.6499C11.3408 14.5181 11.5605 14.5474 11.6777 14.7085H11.6924ZM5.18747 21.0376C5.02631 20.9204 4.7919 20.979 4.68935 21.1548L2.90197 24.2608C2.79941 24.4366 2.87266 24.6563 3.04847 24.7442L8.99665 27.5572L8.43992 28.5095C8.33737 28.6853 8.41062 28.9197 8.60108 28.9929L14.5199 31.7033C14.9448 30.6045 15.5162 29.579 16.2194 28.656L5.18747 21.0376ZM0.806919 29.4764C0.836221 29.2713 1.04133 29.1541 1.23179 29.198L14.1976 32.5824C13.8607 33.6812 13.6702 34.8386 13.6409 36.0399L7.15066 35.5125C6.94555 35.4978 6.79904 35.3074 6.843 35.1023L7.03346 34.0181L0.484605 33.4028C0.279495 33.3881 0.147639 33.1977 0.17694 32.9926L0.792269 29.4618L0.806919 29.4764ZM0.323447 38.2375C0.118338 38.2522 -0.0135183 38.4426 0.015783 38.6477L0.645762 42.1785C0.675063 42.3837 0.880173 42.5009 1.07063 42.4569L7.42902 40.8014L7.61948 41.8855C7.64878 42.0906 7.85389 42.2078 8.04435 42.1639L14.3148 40.4351C13.9486 39.351 13.7142 38.1936 13.6556 37.0069L0.308796 38.2375H0.323447ZM2.40384 47.526C2.30129 47.3502 2.37454 47.1305 2.55035 47.0426L14.6518 41.2995C15.106 42.3837 15.7213 43.3946 16.4538 44.3029L11.1503 48.0828C10.9891 48.2 10.7547 48.156 10.6522 47.9802L10.0954 47.0133L4.68935 50.7492C4.52819 50.8664 4.29378 50.8078 4.19122 50.632L2.38919 47.526H2.40384ZM17.0692 45.0061L7.64878 54.5437C7.50228 54.6902 7.51693 54.9246 7.67808 55.0565L10.4324 57.3566C10.5936 57.4885 10.8133 57.4592 10.9305 57.298L14.7397 51.9359L15.5894 52.6538C15.7506 52.7856 15.985 52.7563 16.1022 52.5805L19.7942 47.2184C18.7979 46.603 17.875 45.8559 17.0838 45.0061H17.0692ZM15.2085 60.3161C15.0181 60.2428 14.9302 60.0231 15.0181 59.8473L20.6 47.6579C21.6255 48.1853 22.739 48.5809 23.8964 48.8007L22.2555 55.1004C22.2116 55.2909 21.9918 55.4081 21.8013 55.3349L20.7611 54.9539L19.0177 61.2977C18.9591 61.4881 18.754 61.6053 18.5635 61.5321L15.1939 60.3014L15.2085 60.3161ZM24.8194 48.9618L23.7352 62.3232C23.7206 62.5283 23.8817 62.7041 24.0722 62.7041H27.6616C27.8667 62.7041 28.0279 62.5283 27.9986 62.3232L27.4711 55.7744H28.5699C28.7751 55.7744 28.9362 55.5986 28.9216 55.3935L28.3062 48.9179C27.6763 49.0204 27.0316 49.0644 26.3723 49.0644C25.8449 49.0644 25.3321 49.0351 24.8194 48.9618ZM37.7413 12.7893C37.8292 12.5988 37.7413 12.3937 37.5508 12.3205L34.1812 11.0898C33.9907 11.0166 33.7856 11.1338 33.727 11.3242L31.9836 17.668L30.9434 17.2871C30.7529 17.2138 30.5478 17.331 30.4892 17.5215L28.8483 23.8213C30.0204 24.0557 31.1192 24.4512 32.1447 24.964L37.7413 12.7893ZM45.0959 18.1075L35.6755 27.6451C34.8844 26.7953 33.976 26.0482 32.9651 25.4328L36.6571 20.0707C36.7743 19.9095 37.0087 19.8656 37.1699 19.9974L38.0196 20.7153L41.8288 15.3532C41.946 15.192 42.1804 15.1627 42.3269 15.2946L45.0813 17.5947C45.2424 17.7266 45.2424 17.961 45.1106 18.1075H45.0959ZM50.1943 25.6086C50.3848 25.5207 50.4434 25.301 50.3408 25.1252L48.5388 22.0192C48.4363 21.8434 48.2019 21.7995 48.0407 21.902L42.6346 25.6379L42.0779 24.6856C41.9753 24.5098 41.7409 24.4512 41.5797 24.5831L36.2762 28.363C37.0087 29.2713 37.6094 30.2822 38.0782 31.3663L50.1797 25.6233L50.1943 25.6086ZM52.0989 30.4727L52.7143 34.0035C52.7436 34.2086 52.6117 34.3844 52.4066 34.4137L39.0598 35.659C39.0012 34.4576 38.7668 33.3149 38.4005 32.2307L44.671 30.502C44.8615 30.4434 45.0666 30.5752 45.0959 30.7803L45.2864 31.8645L51.6448 30.2089C51.8352 30.165 52.0403 30.2822 52.0696 30.4873L52.0989 30.4727ZM51.4983 43.4385C51.6887 43.4825 51.8938 43.3653 51.9231 43.1601L52.5385 39.6293C52.5678 39.4242 52.4359 39.2484 52.2308 39.2191L45.6819 38.6038L45.8724 37.5196C45.9017 37.3145 45.7698 37.1387 45.5647 37.1094L39.0745 36.582C39.0452 37.7833 38.8547 38.9407 38.5178 40.0395L51.4836 43.4239L51.4983 43.4385ZM48.0407 51.4964C47.9381 51.6722 47.7037 51.7161 47.5426 51.6136L36.5106 43.9952C37.2138 43.0722 37.7852 42.0467 38.2101 40.9479L44.129 43.6583C44.3194 43.7462 44.3927 43.9659 44.2901 44.1417L43.7334 45.094L49.6816 47.907C49.8574 47.9949 49.9306 48.2146 49.8281 48.3904L48.0407 51.4964ZM33.2875 46.9986L41.0377 57.928C41.1549 58.0892 41.3893 58.1185 41.5358 57.9866L44.2755 55.6865C44.4366 55.5546 44.4366 55.3202 44.3048 55.1737L39.6898 50.5001L40.5395 49.7969C40.7007 49.665 40.7007 49.4306 40.5542 49.2841L35.9099 44.7131C35.1334 45.5922 34.2544 46.3686 33.2728 46.9986H33.2875ZM33.2142 61.8837C33.0238 61.957 32.8186 61.8398 32.76 61.6493L29.2146 48.7274C30.372 48.4637 31.4708 48.0388 32.4817 47.4821L35.28 53.357C35.3679 53.5475 35.28 53.7672 35.0895 53.8258L34.0493 54.2067L36.789 60.1842C36.8769 60.3747 36.789 60.5798 36.5985 60.653L33.2289 61.8837H33.2142Z" fill="#190041"/>
</g>
</g>
</svg>
