<svg width="160" height="72" viewBox="0 0 160 72" fill="none" xmlns="http://www.w3.org/2000/svg">
<g clip-path="url(#clip0_1_142)">
<path fill-rule="evenodd" clip-rule="evenodd" d="M55.2301 38.3781C53.8699 37.6264 53.1541 37.0179 53.1541 36.1589C53.1541 35.0492 54.1205 34.3692 55.6596 34.3692C57.4494 34.3692 59.0243 35.1208 59.0243 35.1208L60.2771 31.2909C60.2771 31.2909 59.1317 30.396 55.7312 30.396C51.0064 30.396 47.7133 33.1164 47.7133 36.9105C47.7133 39.0582 49.2525 40.7047 51.2928 41.8859C52.9393 42.8166 53.512 43.4967 53.512 44.4631C53.512 45.5011 52.6887 46.3244 51.1496 46.3244C48.8588 46.3244 46.7111 45.1432 46.7111 45.1432L45.3867 48.9732C45.3867 48.9732 47.3912 50.2976 50.7201 50.2976C55.5881 50.2976 59.0601 47.8994 59.0601 43.6041C59.1317 41.2416 57.342 39.5951 55.2301 38.3781Z" fill="#190041"/>
<path fill-rule="evenodd" clip-rule="evenodd" d="M74.6315 30.3242C72.2332 30.3242 70.3719 31.4696 68.9044 33.1877L68.8328 33.1519L70.9089 22.2705H65.5039L60.2422 49.9394H65.6471L67.4368 40.4897C68.1527 36.9103 69.9782 34.7269 71.6963 34.7269C72.9133 34.7269 73.3787 35.5501 73.3787 36.7314C73.3787 37.483 73.3071 38.3779 73.1281 39.1296L71.0878 49.9752H76.4927L78.6046 38.8074C78.8552 37.6262 78.9983 36.2302 78.9983 35.2638C79.0341 32.1497 77.4234 30.3242 74.6315 30.3242Z" fill="#190041"/>
<path d="M91.2753 30.3242C84.7608 30.3242 80.4297 36.1945 80.4297 42.7448C80.4297 46.9327 83.0069 50.3332 87.8749 50.3332C94.282 50.3332 98.5773 44.6061 98.5773 37.9126C98.6131 34.011 96.3581 30.3242 91.2753 30.3242ZM88.6266 46.1452C86.7653 46.1452 86.0136 44.5703 86.0136 42.6016C86.0136 39.4875 87.6243 34.4405 90.5594 34.4405C92.4923 34.4405 93.1008 36.0871 93.1008 37.6978C93.1008 41.0625 91.4901 46.1452 88.6266 46.1452Z" fill="#190041"/>
<path d="M112.465 30.3243C108.814 30.3243 106.738 33.5458 106.738 33.5458H106.666L106.989 30.6465H102.192C101.942 32.6152 101.512 35.5861 101.082 37.8411L97.3241 57.6711H102.729L104.232 49.6532H104.34C104.34 49.6532 105.449 50.3691 107.525 50.3691C113.897 50.3691 118.049 43.8545 118.049 37.2684C118.049 33.5816 116.438 30.3243 112.465 30.3243ZM107.311 46.2528C105.915 46.2528 105.091 45.4653 105.091 45.4653L105.986 40.4183C106.631 37.0536 108.385 34.7986 110.246 34.7986C111.892 34.7986 112.393 36.3378 112.393 37.7695C112.393 41.2416 110.317 46.2528 107.311 46.2528Z" fill="#190041"/>
<path fill-rule="evenodd" clip-rule="evenodd" d="M125.782 22.5215C124.064 22.5215 122.668 23.8817 122.668 25.6714C122.668 27.2821 123.67 28.3917 125.209 28.3917H125.281C126.963 28.3917 128.431 27.2463 128.467 25.2418C128.502 23.6669 127.429 22.5215 125.782 22.5215Z" fill="#190041"/>
<path fill-rule="evenodd" clip-rule="evenodd" d="M118.191 49.9396H123.632L127.319 30.7539H121.842L118.191 49.9396Z" fill="#190041"/>
<path fill-rule="evenodd" clip-rule="evenodd" d="M141.063 30.6823H137.305L137.484 29.7875C137.806 27.9262 138.88 26.2796 140.705 26.2796C141.672 26.2796 142.423 26.566 142.423 26.566L143.497 22.3423C143.497 22.3423 142.566 21.877 140.562 21.877C138.629 21.877 136.732 22.4139 135.264 23.6667C133.403 25.2416 132.544 27.4966 132.115 29.7875L131.971 30.6823H129.466L128.678 34.7629H131.184L128.32 49.9038H133.725L136.589 34.7629H140.311L141.063 30.6823Z" fill="#190041"/>
<path fill-rule="evenodd" clip-rule="evenodd" d="M154.092 30.7539C154.092 30.7539 150.692 39.2729 149.188 43.9262H149.117C149.009 42.4228 147.792 30.7539 147.792 30.7539H142.101L145.358 48.3646C145.43 48.7584 145.394 49.0089 145.251 49.2595C144.607 50.4765 143.569 51.6577 142.316 52.5168C141.314 53.2684 140.168 53.7338 139.273 54.0559L140.777 58.6376C141.886 58.387 144.141 57.4922 146.074 55.7025C148.544 53.3758 150.835 49.8322 153.162 44.9642L159.784 30.7539H154.092Z" fill="#190041"/>
<path fill-rule="evenodd" clip-rule="evenodd" d="M25.7734 57.4923L39.1605 54.593C39.1605 54.593 34.3282 21.9129 34.2925 21.6981C34.2567 21.4834 34.0777 21.3402 33.8987 21.3402C33.7197 21.3402 30.3193 21.0896 30.3193 21.0896C30.3193 21.0896 27.9569 18.7272 27.6705 18.4767C27.5989 18.4051 27.5274 18.3693 27.4558 18.3335L25.7734 57.4923Z" fill="#190041"/>
<path d="M26.8814 18.2617C26.8456 18.2617 26.774 18.2975 26.7383 18.2975C26.7025 18.2975 26.2013 18.4407 25.4139 18.6913C24.6264 16.4004 23.2304 14.2886 20.7606 14.2886C20.689 14.2886 20.6175 14.2886 20.5459 14.2886C19.83 13.3937 18.9709 13 18.2192 13C12.4564 13 9.70022 20.1946 8.84116 23.8456C6.62192 24.5257 5.01119 25.0268 4.83221 25.0984C3.57942 25.4922 3.54362 25.528 3.40045 26.7092C3.25727 27.5682 0 52.8031 0 52.8031L25.1633 57.528L26.8814 18.2617ZM20.3311 20.0157C20.3311 20.0872 20.3311 20.1946 20.3311 20.2662C18.9351 20.6957 17.396 21.1611 15.8926 21.6264C16.7517 18.3333 18.3624 16.7226 19.7584 16.1141C20.1163 17.0447 20.3311 18.2975 20.3311 20.0157ZM18.0403 14.5391C18.2908 14.5391 18.5414 14.6107 18.7919 14.7897C16.9664 15.6488 14.962 17.8322 14.1387 22.1991C12.9217 22.5928 11.7405 22.9508 10.6309 23.2729C11.5973 19.9441 13.9239 14.5391 18.0403 14.5391ZM19.0425 33.9754C19.0425 33.9754 17.5392 33.1879 15.7494 33.1879C13.0649 33.1879 12.9575 34.8702 12.9575 35.2998C12.9575 37.5906 18.9709 38.4855 18.9709 43.8904C18.9709 48.1499 16.2864 50.8702 12.6353 50.8702C8.26846 50.8702 6.04922 48.1499 6.04922 48.1499L7.23042 44.2841C7.23042 44.2841 9.52125 46.2528 11.4541 46.2528C12.7069 46.2528 13.2438 45.2506 13.2438 44.5347C13.2438 41.528 8.30425 41.3848 8.30425 36.4452C8.30425 32.2931 11.2752 28.2483 17.3244 28.2483C19.651 28.2483 20.7964 28.9284 20.7964 28.9284L19.0425 33.9754ZM21.3333 15.8635C22.6219 16.0067 23.4452 17.4743 23.9821 19.1208C23.3378 19.3356 22.6219 19.5503 21.8345 19.8009C21.8345 19.6577 21.8345 19.5145 21.8345 19.3356C21.8345 17.9396 21.6555 16.7942 21.3333 15.8635Z" fill="#190041"/>
</g>
<defs>
<clipPath id="clip0_1_142">
<rect width="160" height="72" fill="white"/>
</clipPath>
</defs>
</svg>
