<svg width="24" height="24" viewBox="0 0 24 24" fill="none" xmlns="http://www.w3.org/2000/svg">
<path d="M15.125 7.5C15.125 7.40054 15.1645 7.30516 15.2348 7.23483C15.3052 7.16451 15.4005 7.125 15.5 7.125H15.9995C16.099 7.125 16.1943 7.16451 16.2647 7.23483C16.335 7.30516 16.3745 7.40054 16.3745 7.5V8.00025C16.3745 8.09971 16.335 8.19509 16.2647 8.26542C16.1943 8.33574 16.099 8.37525 15.9995 8.37525H15.5C15.4005 8.37525 15.3052 8.33574 15.2348 8.26542C15.1645 8.19509 15.125 8.09971 15.125 8.00025V7.5Z" fill="#190041"/>
<path fill-rule="evenodd" clip-rule="evenodd" d="M12 8.25C11.0054 8.25 10.0516 8.64509 9.34835 9.34835C8.64509 10.0516 8.25 11.0054 8.25 12C8.25 12.9946 8.64509 13.9484 9.34835 14.6517C10.0516 15.3549 11.0054 15.75 12 15.75C12.9946 15.75 13.9484 15.3549 14.6517 14.6517C15.3549 13.9484 15.75 12.9946 15.75 12C15.75 11.0054 15.3549 10.0516 14.6517 9.34835C13.9484 8.64509 12.9946 8.25 12 8.25ZM9.75 12C9.75 11.4033 9.98705 10.831 10.409 10.409C10.831 9.98705 11.4033 9.75 12 9.75C12.5967 9.75 13.169 9.98705 13.591 10.409C14.0129 10.831 14.25 11.4033 14.25 12C14.25 12.5967 14.0129 13.169 13.591 13.591C13.169 14.0129 12.5967 14.25 12 14.25C11.4033 14.25 10.831 14.0129 10.409 13.591C9.98705 13.169 9.75 12.5967 9.75 12Z" fill="#190041"/>
<path fill-rule="evenodd" clip-rule="evenodd" d="M9.76775 4.25H14.2318C15.0448 4.25 15.7003 4.25 16.2313 4.2935C16.778 4.3385 17.258 4.43225 17.702 4.65875C18.4076 5.01827 18.9812 5.59192 19.3407 6.2975C19.5673 6.7415 19.6617 7.2215 19.7067 7.76825C19.7495 8.29925 19.7495 8.95475 19.7495 9.76775V14.2318C19.7495 15.0448 19.7495 15.7003 19.7067 16.2313C19.6617 16.778 19.5673 17.2588 19.3407 17.702C18.9812 18.4076 18.4076 18.9812 17.702 19.3407C17.258 19.5673 16.778 19.6617 16.2313 19.7067C15.7003 19.7495 15.0448 19.7495 14.2318 19.7495H9.76775C8.95475 19.7495 8.29925 19.7495 7.76825 19.7067C7.2215 19.6617 6.7415 19.5673 6.2975 19.3407C5.59192 18.9812 5.01827 18.4076 4.65875 17.702C4.43225 17.258 4.33775 16.778 4.29275 16.2313C4.25 15.7003 4.25 15.0448 4.25 14.2318V9.76775C4.25 8.95475 4.25 8.29925 4.29275 7.76825C4.33775 7.2215 4.43225 6.7415 4.65875 6.2975C5.01827 5.59192 5.59192 5.01827 6.2975 4.65875C6.7415 4.43225 7.2215 4.33775 7.76825 4.2935C8.29925 4.25 8.95475 4.25 9.76775 4.25ZM7.8905 5.7875C7.43675 5.825 7.17575 5.89475 6.9785 5.99525C6.55527 6.21077 6.21109 6.55468 5.99525 6.97775C5.894 7.17575 5.825 7.43675 5.78825 7.8905C5.75075 8.35325 5.75 8.948 5.75 9.8V14.1995C5.75 15.0523 5.75 15.647 5.7875 16.109C5.825 16.5627 5.894 16.8237 5.99525 17.021C6.21077 17.4442 6.55468 17.7884 6.97775 18.0043C7.17575 18.1055 7.43675 18.1745 7.8905 18.2113C8.35325 18.2487 8.94725 18.2495 9.8 18.2495H14.1995C15.0523 18.2495 15.647 18.2495 16.109 18.212C16.5627 18.1745 16.8237 18.1055 17.021 18.0043C17.4442 17.7887 17.7884 17.4448 18.0043 17.0217C18.1048 16.8237 18.1745 16.5627 18.2113 16.109C18.2487 15.6462 18.2495 15.0523 18.2495 14.1995V9.8C18.2495 8.94725 18.2495 8.3525 18.212 7.8905C18.1745 7.43675 18.1048 7.17575 18.0043 6.9785C17.7887 6.55527 17.4448 6.21109 17.0217 5.99525C16.8237 5.89475 16.5627 5.825 16.109 5.78825C15.6462 5.75075 15.0515 5.75 14.1995 5.75H9.8C8.94725 5.75 8.3525 5.75 7.8905 5.7875Z" fill="#190041"/>
</svg>
