<svg width="24" height="24" viewBox="0 0 24 24" fill="none" xmlns="http://www.w3.org/2000/svg">
<path fill-rule="evenodd" clip-rule="evenodd" d="M4.25 5.5C4.25 4.90326 4.48705 4.33097 4.90901 3.90901C5.33097 3.48705 5.90326 3.25 6.5 3.25C7.09674 3.25 7.66903 3.48705 8.09099 3.90901C8.51295 4.33097 8.75 4.90326 8.75 5.5C8.75 6.09674 8.51295 6.66903 8.09099 7.09099C7.66903 7.51295 7.09674 7.75 6.5 7.75C5.90326 7.75 5.33097 7.51295 4.90901 7.09099C4.48705 6.66903 4.25 6.09674 4.25 5.5ZM6.5 5.25025C6.43366 5.25025 6.37004 5.2766 6.32314 5.32351C6.27623 5.37042 6.24988 5.43404 6.24988 5.50037C6.24988 5.56671 6.27623 5.63033 6.32314 5.67724C6.37004 5.72415 6.43366 5.7505 6.5 5.7505C6.56634 5.7505 6.62996 5.72415 6.67687 5.67724C6.72377 5.63033 6.75012 5.56671 6.75012 5.50037C6.75012 5.43404 6.72377 5.37042 6.67687 5.32351C6.62996 5.2766 6.56634 5.25025 6.5 5.25025ZM4.25 10C4.25 9.80109 4.32902 9.61032 4.46967 9.46967C4.61032 9.32902 4.80109 9.25 5 9.25H8C8.19891 9.25 8.38968 9.32902 8.53033 9.46967C8.67098 9.61032 8.75 9.80109 8.75 10V19C8.75 19.1989 8.67098 19.3897 8.53033 19.5303C8.38968 19.671 8.19891 19.75 8 19.75H5C4.80109 19.75 4.61032 19.671 4.46967 19.5303C4.32902 19.3897 4.25 19.1989 4.25 19V10ZM5.75 10.75V18.25H7.25V10.75H5.75ZM11.6967 10.5025C12.6447 9.6595 13.9663 9.25 15.4993 9.25C17.033 9.25 18.3552 9.6595 19.3025 10.5025C20.2625 11.3545 20.75 12.5725 20.75 14.0005V19C20.75 19.1989 20.671 19.3897 20.5303 19.5303C20.3897 19.671 20.1989 19.75 20 19.75H17C16.8011 19.75 16.6103 19.671 16.4697 19.5303C16.329 19.3897 16.25 19.1989 16.25 19V15.0002C16.25 14.7422 16.2492 14.5308 16.2297 14.3403C16.211 14.1513 16.1772 14.0335 16.1412 13.9608C16.1171 13.9068 16.0745 13.8633 16.0212 13.8378C15.9493 13.8003 15.7963 13.75 15.5 13.75C15.203 13.75 15.05 13.8003 14.978 13.8378C14.9247 13.8633 14.8822 13.9068 14.858 13.9608C14.8213 14.0335 14.7883 14.1513 14.7695 14.3403C14.7524 14.5598 14.7459 14.7801 14.75 15.0002V19C14.75 19.1989 14.671 19.3897 14.5303 19.5303C14.3897 19.671 14.1989 19.75 14 19.75H11C10.8011 19.75 10.6103 19.671 10.4697 19.5303C10.329 19.3897 10.25 19.1989 10.25 19V14.0005C10.25 12.5725 10.7375 11.3545 11.6967 10.5025ZM12.6935 11.6237C12.1055 12.1458 11.75 12.928 11.75 14.0005V18.25H13.25V14.9313C13.2485 14.4865 13.2477 13.8272 13.5162 13.2895C13.6824 12.9524 13.9527 12.6778 14.2872 12.5065C14.6367 12.325 15.0463 12.25 15.5 12.25C15.953 12.25 16.3625 12.325 16.712 12.5065C17.075 12.694 17.324 12.9722 17.483 13.2895C17.7515 13.8272 17.7507 14.4865 17.75 14.9313V18.25H19.25V14.0005C19.25 12.928 18.8938 12.1458 18.3058 11.623C17.7073 11.0905 16.7788 10.75 15.5 10.75C14.2205 10.75 13.2927 11.0905 12.6935 11.6237Z" fill="#190041"/>
</svg>
