<svg width="24" height="24" viewBox="0 0 24 24" fill="none" xmlns="http://www.w3.org/2000/svg">
<path fill-rule="evenodd" clip-rule="evenodd" d="M17.166 6.12731C16.1783 5.26481 14.799 5.00231 13.5548 5.50106C12.1695 6.05606 11.2763 7.42556 11.2508 8.92856C9.5205 8.75381 7.92225 7.79381 6.89625 6.25856C6.82104 6.14612 6.71681 6.05611 6.59461 5.99808C6.47241 5.94005 6.33679 5.91614 6.20212 5.9289C6.06744 5.94166 5.93873 5.99061 5.8296 6.07056C5.72048 6.15052 5.63501 6.25849 5.58225 6.38306L6.27225 6.67556L5.58225 6.38381L5.5815 6.38531L5.58075 6.38681L5.57775 6.39281L5.57025 6.41156L5.5455 6.47381C5.42305 6.80259 5.31962 7.13814 5.23575 7.47881C5.076 8.13131 4.923 9.04106 4.9665 10.0513C5.01075 11.0646 5.253 12.1971 5.89875 13.2688C6.366 14.0443 7.03125 14.7666 7.94625 15.3808C7.03386 15.8011 6.03471 15.9988 5.031 15.9576C4.86367 15.9507 4.69884 15.9999 4.56278 16.0976C4.42672 16.1952 4.32725 16.3356 4.28023 16.4963C4.23321 16.6571 4.24134 16.8289 4.30332 16.9845C4.36531 17.1401 4.47758 17.2704 4.62225 17.3548C7.6965 19.1496 11.109 19.1698 13.7715 17.6413C16.4115 16.1263 18.207 13.1496 18.249 9.14531C18.282 9.08231 18.3285 8.99681 18.3885 8.89031C18.4635 8.75531 18.546 8.61281 18.6353 8.45606C18.7178 8.31206 18.8078 8.15606 18.903 7.98731C19.0913 7.65356 19.2885 7.29581 19.44 6.98456C19.515 6.82931 19.5855 6.67331 19.6388 6.53006C19.7058 6.3633 19.7433 6.18617 19.7498 6.00656C19.7498 5.80945 19.6722 5.62026 19.5338 5.47991C19.3954 5.33956 19.2073 5.25932 19.0103 5.25656C18.7013 5.25281 18.426 5.36906 18.24 5.46206C18.0282 5.57311 17.8234 5.69683 17.6265 5.83256C17.451 5.94731 17.3003 6.04706 17.166 6.12656V6.12731ZM6.6 8.25581C6.48842 8.82542 6.44312 9.40603 6.465 9.98606C6.50025 10.8118 6.69525 11.6856 7.18275 12.4941C7.6665 13.2966 8.463 14.0781 9.771 14.6893C9.88974 14.7447 9.99189 14.8303 10.0673 14.9375C10.1426 15.0447 10.1886 15.1698 10.2006 15.3003C10.2126 15.4308 10.1902 15.5621 10.1356 15.6813C10.081 15.8004 9.99616 15.9032 9.8895 15.9793C9.25493 16.4327 8.55758 16.7909 7.8195 17.0428C9.69 17.4778 11.5223 17.2026 13.0238 16.3401C15.1703 15.1078 16.749 12.6126 16.749 8.99906C16.749 8.88806 16.7738 8.80106 16.7828 8.76881C16.7934 8.73219 16.8059 8.69614 16.8203 8.66081C16.8422 8.60714 16.8662 8.55435 16.8923 8.50256C16.9418 8.40356 17.0078 8.28281 17.0798 8.15531C17.1503 8.02781 17.2403 7.87181 17.3348 7.70756C17.2993 7.72067 17.2635 7.73292 17.2275 7.74431C17.0851 7.78934 16.9325 7.79083 16.7893 7.74861C16.6461 7.70639 16.5187 7.62237 16.4235 7.50731C15.84 6.80231 14.9183 6.56981 14.1128 6.89231C13.299 7.21856 12.7373 8.06081 12.7493 9.02606V9.70406C12.7493 9.89951 12.6731 10.0873 12.5368 10.2274C12.4005 10.3674 12.2149 10.4488 12.0195 10.4541C9.978 10.5096 8.034 9.69806 6.6 8.25581Z" fill="#190041"/>
</svg>
