<svg width="24" height="24" viewBox="0 0 24 24" fill="none" xmlns="http://www.w3.org/2000/svg">
<path d="M10.7513 9.99771C10.6655 9.95492 10.5703 9.93473 10.4747 9.93905C10.379 9.94336 10.286 9.97205 10.2045 10.0224C10.123 10.0727 10.0557 10.143 10.0089 10.2266C9.96222 10.3103 9.93763 10.4044 9.9375 10.5002V13.5002C9.93763 13.596 9.96222 13.6902 10.0089 13.7738C10.0557 13.8574 10.123 13.9277 10.2045 13.978C10.286 14.0284 10.379 14.0571 10.4747 14.0614C10.5703 14.0657 10.6655 14.0455 10.7513 14.0027L13.7512 12.5027C13.8444 12.4559 13.9226 12.3841 13.9773 12.2953C14.032 12.2066 14.061 12.1044 14.061 12.0002C14.061 11.896 14.032 11.7938 13.9773 11.7051C13.9226 11.6163 13.8444 11.5445 13.7512 11.4977L10.7513 9.99771Z" fill="#190041"/>
<path fill-rule="evenodd" clip-rule="evenodd" d="M11.9999 6C10.1452 6 8.43145 6.10425 7.0147 6.234C5.69245 6.3555 5.2567 6.41175 4.8517 6.65175C4.5007 6.86025 4.14295 7.25175 3.96745 7.62075C3.76645 8.04375 3.74995 8.5305 3.74995 9.98025V14.0198C3.74995 15.4688 3.76645 15.9563 3.96745 16.3793C4.14295 16.7483 4.5007 17.1398 4.85245 17.3483C5.25745 17.5883 5.69245 17.6445 7.0147 17.766C8.67204 17.9195 10.3355 17.9976 11.9999 18C13.8547 18 15.5677 17.8958 16.9852 17.766C18.3074 17.6445 18.7424 17.5883 19.1474 17.3483C19.4992 17.1398 19.8562 16.7483 20.0324 16.3793C20.2327 15.9563 20.2499 15.4695 20.2499 14.0198V9.98025C20.2499 8.5305 20.2327 8.04375 20.0324 7.62075C19.8309 7.2234 19.5249 6.88842 19.1474 6.65175C18.7424 6.41175 18.3074 6.3555 16.9852 6.234C15.3279 6.08048 13.6644 6.0024 11.9999 6ZM6.87745 4.74C8.58042 4.58239 10.2897 4.50231 11.9999 4.5C13.7567 4.50253 15.5124 4.58712 17.2612 4.7535C18.3899 4.85625 19.1834 4.929 19.9132 5.36175C20.5207 5.72175 21.0832 6.339 21.3869 6.97725C21.7514 7.74375 21.7507 8.5965 21.7499 9.8205V14.1795C21.7499 15.4035 21.7514 16.257 21.3869 17.0228C21.0577 17.6893 20.5468 18.2493 19.9132 18.6383C19.1834 19.071 18.3907 19.1438 17.2612 19.2465L17.1224 19.2593C15.6689 19.3928 13.9094 19.5 11.9999 19.5C10.0904 19.5 8.3302 19.3927 6.87745 19.26L6.7387 19.2465C5.6092 19.1438 4.81645 19.071 4.0867 18.639C3.45295 18.2499 2.94207 17.6896 2.61295 17.0228C2.24845 16.2563 2.24995 15.4035 2.24995 14.1795V9.98025V9.8205C2.2492 8.5965 2.24845 7.743 2.61295 6.97725C2.94239 6.31056 3.45353 5.75054 4.08745 5.36175C4.8172 4.929 5.60995 4.85625 6.73945 4.7535L6.8782 4.74075L6.87745 4.74Z" fill="#190041"/>
</svg>
